<svg width="640" height="420" viewBox="0 0 640 420" fill="none" xmlns="http://www.w3.org/2000/svg">
  <rect width="640" height="420" rx="36" fill="url(#paint0_linear)"/>
  <rect x="58" y="82" width="274" height="256" rx="28" fill="white" fill-opacity="0.96"/>
  <rect x="88" y="116" width="90" height="16" rx="8" fill="#E9D7FE"/>
  <rect x="88" y="148" width="206" height="18" rx="9" fill="#7A5AF8"/>
  <rect x="88" y="186" width="214" height="14" rx="7" fill="#F4EBFF"/>
  <rect x="88" y="218" width="214" height="14" rx="7" fill="#F4EBFF"/>
  <rect x="88" y="250" width="214" height="14" rx="7" fill="#F4EBFF"/>
  <rect x="88" y="290" width="102" height="28" rx="14" fill="#7A5AF8"/>
  <circle cx="456" cy="188" r="94" fill="#F4EBFF"/>
  <path d="M456 130L474 166L514 172L485 201L492 242L456 223L420 242L427 201L398 172L438 166L456 130Z" fill="#7A5AF8"/>
  <defs>
    <linearGradient id="paint0_linear" x1="34" y1="44" x2="606" y2="378" gradientUnits="userSpaceOnUse">
      <stop stop-color="#53389E"/>
      <stop offset="1" stop-color="#9E77ED"/>
    </linearGradient>
  </defs>
</svg>
