<svg width="640" height="420" viewBox="0 0 640 420" fill="none" xmlns="http://www.w3.org/2000/svg">
  <rect width="640" height="420" rx="36" fill="url(#paint0_linear)"/>
  <rect x="58" y="82" width="274" height="256" rx="28" fill="white" fill-opacity="0.96"/>
  <rect x="88" y="116" width="90" height="16" rx="8" fill="#FDECC8"/>
  <rect x="88" y="148" width="196" height="18" rx="9" fill="#F79009"/>
  <rect x="88" y="186" width="214" height="14" rx="7" fill="#FFF4E5"/>
  <rect x="88" y="218" width="214" height="14" rx="7" fill="#FFF4E5"/>
  <rect x="88" y="250" width="214" height="14" rx="7" fill="#FFF4E5"/>
  <rect x="88" y="290" width="92" height="28" rx="14" fill="#F79009"/>
  <circle cx="456" cy="176" r="90" fill="#FFF7ED"/>
  <rect x="406" y="138" width="98" height="72" rx="18" fill="#F79009"/>
  <rect x="420" y="154" width="18" height="40" rx="9" fill="white"/>
  <rect x="446" y="164" width="18" height="30" rx="9" fill="white"/>
  <rect x="472" y="148" width="18" height="46" rx="9" fill="white"/>
  <defs>
    <linearGradient id="paint0_linear" x1="34" y1="44" x2="606" y2="378" gradientUnits="userSpaceOnUse">
      <stop stop-color="#B54708"/>
      <stop offset="1" stop-color="#FDB022"/>
    </linearGradient>
  </defs>
</svg>
